Music_UntitledBattle:
	channel_count 4
	channel 1, Music_UntitledBattle_Ch1
	channel 2, Music_UntitledBattle_Ch2
	channel 3, Music_UntitledBattle_Ch3
	channel 4, Music_UntitledBattle_Ch4

Music_UntitledBattle_Ch1:
	volume 7, 7
	note_type 12, 15, 8
	tempo 104
	duty_cycle 1
	volume_envelope 15, 4
	octave 3
	note B_, 1
	octave 4
	note C_, 1
	note C#, 1
	note C_, 1
	octave 3
	note B_, 1
	octave 4
	note C_, 1
	note C#, 1
	note C_, 1
	octave 3
	note B_, 1
	octave 4
	note C_, 1
	note C#, 1
	note C_, 1
	octave 3
	note B_, 1
	octave 4
	note C_, 1
	note C#, 1
	note C_, 1
	octave 3
	note B_, 1
	octave 4
	note C_, 1
	note C#, 1
	note C_, 1
	octave 3
	note B_, 1
	octave 4
	note C_, 1
	note C#, 1
	note C_, 1
	octave 3
	note B_, 1
	octave 4
	note C_, 1
	note C#, 1
	note C_, 1
	octave 3
	note B_, 1
	note A#, 1
	note A_, 1
	note G#, 1
.mainLoop:
	note_type 12, 15, 1
	volume_envelope 15, 4
	octave 3
	note G_, 6
	note F_, 4
	note G_, 6
	note A_, 4
	note G_, 6
	note B_, 1
	rest 1
	octave 4
	note E_, 1
	rest 1
	octave 3
	note B_, 1
	rest 1
	note G_, 6
	note F_, 4
	note G_, 6
	note A_, 4
	octave 4
	note D_, 6
	octave 3
	note B_, 1
	rest 1
	octave 4
	note D_, 1
	rest 1
	octave 3
	note B_, 1
	rest 1
	note G_, 6
	note F_, 4
	note G_, 6
	note A_, 4
	note G_, 6
	note B_, 1
	rest 1
	octave 4
	note E_, 1
	rest 1
	octave 3
	note B_, 1
	rest 1
	note G_, 6
	note F_, 4
	note G_, 6
	note A_, 4
	octave 4
	note D_, 6
	octave 3
	note B_, 1
	rest 1
	octave 4
	note D_, 1
	rest 1
	octave 3
	note B_, 1
	rest 1
	note G_, 2
	note G_, 4
	note B_, 2
	note B_, 4
	octave 4
	note D_, 2
	note D_, 4
	note C_, 2
	octave 3
	note B_, 2
	note A_, 2
	note B_, 2
	note A_, 2
	note B_, 2
	note A_, 2
	note G_, 2
	note G_, 4
	note A#, 2
	note A#, 4
	octave 4
	note D_, 2
	note D_, 4
	note C_, 2
	octave 3
	note B_, 2
	note A_, 2
	note B_, 2
	note A_, 2
	note B_, 2
	note A_, 2
	note G_, 2
	note G_, 4
	note A_, 2
	note A_, 4
	octave 4
	note D_, 2
	note D_, 4
	note C_, 2
	octave 3
	note B_, 2
	note A_, 2
	note B_, 2
	note A_, 2
	note B_, 2
	note A_, 2
	note G_, 2
	note G_, 4
	note A#, 2
	note A#, 4
	octave 4
	note D_, 2
	note D_, 4
	note C_, 2
	octave 3
	note B_, 2
	note A_, 2
	note B_, 2
	note A_, 2
	note B_, 2
	note A_, 2
	sound_loop 0, .mainLoop

Music_UntitledBattle_Ch2:
	note_type 12, 15, 8
	volume_envelope 15, 4
	octave 3
	note G_, 1
	note F#, 1
	note F_, 1
	note E_, 1
	note F_, 1
	note E_, 1
	note D#, 1
	note D_, 1
	note D#, 1
	note D_, 1
	note C#, 1
	note C_, 1
	note C#, 1
	note C_, 1
	octave 2
	note B_, 1
	note A#, 1
	note B_, 1
	note A#, 1
	note A_, 1
	note G#, 1
	note A_, 1
	note G#, 1
	note G_, 1
	note F#, 1
	note G_, 1
	note F#, 1
	note F_, 1
	note E_, 1
	note F_, 1
	note E_, 1
	note D#, 1
	note D_, 1
.mainLoop:
	octave 2
	volume_envelope 15, 1
	duty_cycle 1
	note G_, 6
	note F_, 4
	note G_, 6
	note A_, 4
	note G_, 6
	rest 6
	note G_, 6
	note F_, 4
	note G_, 6
	note A_, 4
	octave 3
	note D_, 6
	rest 6
	octave 2
	note G_, 6
	note F_, 4
	note G_, 6
	note A_, 4
	note G_, 6
	rest 6
	note G_, 6
	note F_, 4
	note G_, 6
	note A_, 4
	octave 3
	note D_, 6
	rest 6
	octave 2
	note G_, 2
	note G_, 4
	note B_, 2
	note B_, 4
	octave 3
	note D_, 2
	note D_, 4
	note C_, 2
	octave 2
	note B_, 2
	note A_, 2
	note B_, 2
	note A_, 2
	note B_, 2
	note A_, 2
	note G_, 2
	note G_, 4
	note A#, 2
	note A#, 4
	octave 3
	note D_, 2
	note D_, 4
	note C_, 2
	octave 2
	note B_, 2
	note A_, 2
	note B_, 2
	note A_, 2
	note B_, 2
	note A_, 2
	note G_, 2
	note G_, 4
	note A_, 2
	note A_, 4
	octave 3
	note D_, 2
	note D_, 4
	note C_, 2
	octave 2
	note B_, 2
	note A_, 2
	note B_, 2
	note A_, 2
	note B_, 2
	note A_, 2
	note G_, 2
	note G_, 4
	note A#, 2
	note A#, 4
	octave 3
	note D_, 2
	note D_, 4
	note C_, 2
	octave 2
	note B_, 2
	note A_, 2
	note B_, 2
	note A_, 2
	note B_, 2
	note A_, 2
	note_type 12, 15, 1
	sound_loop 0, .mainLoop

Music_UntitledBattle_Ch3:
	octave 2
	note_type 12, 1, 5
	note G_, 2
	octave 1
	note G_, 2
	octave 2
	note G_, 2
	octave 1
	note F#, 2
	octave 2
	note G_, 2
	octave 1
	note F_, 2
	octave 2
	note G_, 2
	octave 1
	note E_, 2
	octave 2
	note G_, 2
	octave 1
	note D#, 2
	octave 2
	note G_, 2
	octave 1
	note D_, 2
	note D#, 2
	note E_, 2
	note F_, 2
	note F#, 2
.mainLoop:
	octave 2
	note D_, 2
	octave 1
	note G_, 2
	octave 2
	note D_, 2
	octave 1
	note G_, 2
	octave 2
	note D_, 2
	octave 1
	note G_, 2
	octave 2
	note D_, 2
	octave 1
	note G_, 2
	octave 2
	note E_, 2
	octave 1
	note A_, 2
	octave 2
	note E_, 2
	octave 1
	note A_, 2
	octave 2
	note E_, 2
	octave 1
	note A_, 2
	octave 2
	note E_, 2
	octave 1
	note A_, 2
	octave 2
	note D_, 2
	octave 1
	note G_, 2
	octave 2
	note D_, 2
	octave 1
	note G_, 2
	octave 2
	note D_, 2
	octave 1
	note G_, 2
	octave 2
	note D_, 2
	octave 1
	note G_, 2
	octave 2
	note E_, 2
	octave 1
	note A_, 2
	octave 2
	note E_, 2
	octave 1
	note A_, 2
	octave 2
	note E_, 2
	octave 1
	note A_, 2
	octave 2
	note E_, 2
	octave 1
	note A_, 2
	octave 2
	note D_, 2
	octave 1
	note G_, 2
	octave 2
	note D_, 2
	octave 1
	note G_, 2
	octave 2
	note D_, 2
	octave 1
	note G_, 2
	octave 2
	note D_, 2
	octave 1
	note G_, 2
	octave 2
	note E_, 2
	octave 1
	note A_, 2
	octave 2
	note E_, 2
	octave 1
	note A_, 2
	octave 2
	note E_, 2
	octave 1
	note A_, 2
	octave 2
	note E_, 2
	octave 1
	note A_, 2
	octave 2
	note D_, 2
	octave 1
	note G_, 2
	octave 2
	note D_, 2
	octave 1
	note G_, 2
	octave 2
	note D_, 2
	octave 1
	note G_, 2
	octave 2
	note D_, 2
	octave 1
	note G_, 2
	octave 2
	note E_, 2
	octave 1
	note A_, 2
	octave 2
	note E_, 2
	octave 1
	note A_, 2
	octave 2
	note E_, 2
	octave 1
	note A_, 2
	octave 2
	note E_, 2
	octave 1
	note A_, 2
	note G_, 2
	note G_, 2
	octave 2
	note D_, 2
	octave 1
	note B_, 2
	note B_, 2
	note G_, 2
	octave 2
	note D_, 2
	note D_, 2
	note D_, 2
	octave 1
	note G_, 2
	octave 2
	note D_, 2
	octave 1
	note G_, 2
	octave 2
	note D_, 2
	octave 1
	note G_, 2
	octave 2
	note D_, 2
	octave 1
	note G_, 2
	note G_, 2
	note G_, 2
	octave 2
	note D_, 2
	octave 1
	note A#, 2
	note A#, 2
	note G_, 2
	octave 2
	note D_, 2
	note D_, 2
	note D_, 2
	octave 1
	note G_, 2
	octave 2
	note D_, 2
	octave 1
	note G_, 2
	octave 2
	note D_, 2
	octave 1
	note G_, 2
	octave 2
	note D_, 2
	octave 1
	note G_, 2
	octave 2
	note D_, 2
	octave 1
	note G_, 2
	octave 2
	note D_, 2
	octave 1
	note G_, 2
	octave 2
	note C_, 2
	octave 1
	note F_, 2
	octave 2
	note C_, 2
	octave 1
	note F_, 2
	octave 2
	note D_, 2
	octave 1
	note G_, 2
	octave 2
	note D_, 2
	octave 1
	note G_, 2
	octave 2
	note C_, 2
	octave 1
	note F_, 2
	octave 2
	note C_, 2
	octave 1
	note F_, 2
	note G_, 2
	note G_, 2
	octave 2
	note D_, 2
	octave 1
	note B_, 2
	note B_, 2
	note G_, 2
	octave 2
	note D_, 2
	note D_, 2
	note D_, 2
	octave 1
	note G_, 2
	octave 2
	note D_, 2
	octave 1
	note G_, 2
	octave 2
	note D_, 2
	octave 1
	note G_, 2
	octave 2
	note D_, 2
	octave 1
	note G_, 2
	note_type 12, 1, 5
	sound_loop 0, .mainLoop

Music_UntitledBattle_Ch4:
	toggle_noise 0
	drum_speed 12
	rest 16
	rest 16
.mainLoop:
	rest 16
	rest 16
	rest 16
	rest 16
	rest 16
	rest 16
	rest 16
	rest 16
	rest 16
	rest 16
	rest 16
	rest 16
	rest 16
	rest 16
	rest 16
	rest 16
	drum_speed 12
	sound_loop 0, .mainLoop
